<svg xmlns="http://www.w3.org/2000/svg" width="198.31" height="48.34" viewBox="0 0 198.31 48.34">
  <metadata><?xpacket begin="﻿" id="W5M0MpCehiHzreSzNTczkc9d"?>
<x:xmpmeta xmlns:x="adobe:ns:meta/" x:xmptk="Adobe XMP Core 5.6-c142 79.160924, 2017/07/13-01:06:39        ">
   <rdf:RDF xmlns:rdf="http://www.w3.org/1999/02/22-rdf-syntax-ns#">
      <rdf:Description rdf:about=""/>
   </rdf:RDF>
</x:xmpmeta>
                                                                                                    
                                                                                                    
                                                                                                    
                                                                                                    
                                                                                                    
                                                                                                    
                                                                                                    
                                                                                                    
                                                                                                    
                                                                                                    
                                                                                                    
                                                                                                    
                                                                                                    
                                                                                                    
                                                                                                    
                                                                                                    
                                                                                                    
                                                                                                    
                                                                                                    
                                                                                                    
                           
<?xpacket end="w"?></metadata>
<defs>
    <style>
      .cls-1 {
        fill-rule: evenodd;
      }
    </style>
  </defs>
  <path id="Path_101" data-name="Path 101" class="cls-1" d="M2158.17,4869.73a20.149,20.149,0,0,1,3.65,5.52l-2.84,1.17c-0.2-.86-0.45-1.67-0.7-2.48a65.969,65.969,0,0,1-10.95,2.58l-0.96-3.34h2.83c1.32-1.17,2.79-2.59,4.11-4.01a41.063,41.063,0,0,1-5.83,1.32l-0.81-3.19c0.71,0.05,1.37.05,1.98,0.1a32.748,32.748,0,0,0,3.44-6.28h-6.48v32.38h-4.36v-44.9h18.09v12.52h-6.89l3.24,1.62a36.906,36.906,0,0,1-5.12,4.66c1.37,0,2.74-.1,4.51-0.2a22.972,22.972,0,0,0,2.08-2.74l3.34,1.83a48.636,48.636,0,0,1-8.76,6.73c2.03-.1,4.05-0.25,6.03-0.45-0.26-.81-0.56-1.52-0.81-2.13Zm-12.56-15.91h9.47v-2.94h-9.47v2.94Zm0,5.07h9.47v-2.94h-9.47v2.94Zm14.59,18.04c0.05,2.12.05,4.51-.05,6.08-0.46,7.29-6.33,9.07-11.35,9.83l-0.56-1.73c3.65-1.01,6.44-2.02,7.65-5.42h-6.94v-8.16h3.65v6.08h3.8l0.15-1.92c0.05-1.27.05-3.09,0-4.76h3.65Zm21.23-28.33v40.79c0,4.11-4.31,5.78-11.55,1.32l0.51-1.78c5.92,1.37,6.68,1.12,6.68-1.57v-26.19h-9.78l3.3,1.57a44.106,44.106,0,0,1-4.92,4.81c1.27,0,2.54,0,4.16-.1a29,29,0,0,0,1.77-2.84l3.34,2.03a38.606,38.606,0,0,1-7.65,6.43c1.83-.1,3.55-0.25,5.32-0.4a14.975,14.975,0,0,0-.86-2.08l1.17-.76a21.352,21.352,0,0,1,3.9,5.68l-2.99,1.21-0.76-2.68a56.3,56.3,0,0,1-10.23,2.18l-0.87-3.09c1.02,0.05,1.98.05,2.89,0.05a34.57,34.57,0,0,0,3.55-3.85,49.374,49.374,0,0,1-5.83,1.31l-0.86-3.24c0.76,0.05,1.42.05,2.03,0.1a27.648,27.648,0,0,0,3.29-6.33h-3.45V4848.6h17.84Zm-6.99,37.09h-7.7v6.13h-3.75v-14.84h3.75v6.63h4.05v-6.18h3.65v8.26Zm2.63-34.81h-9.22v2.94h9.22v-2.94Zm0,5.07h-9.22v2.99h9.22v-2.99Zm59.59,10.34-3.86,4.3a58.422,58.422,0,0,1-9.47-16.92,45.918,45.918,0,0,1-11.45,17.07l-0.71-.76c-0.15,6.19-.56,14.55-1.47,18.4-1.32,5.62-6.64,5.57-11.86.71l0.76-1.62c5.52,1.82,6.29,1.57,6.89-1.53a121.191,121.191,0,0,0,1.12-17.88h-5.68c-0.45,10.03-2.94,18.19-9.57,26.24l-1.32-1.31c4.81-8.72,6.28-15.71,6.28-28.68v-6.08h-5.47v-2.28h11a69.23,69.23,0,0,0-5.63-8.57l1.32-1.31a37.374,37.374,0,0,1,8.56,7.45l-2.84,2.43h10.29v2.28h-12.51v7.8h10.13v2.74c4.41-5.68,7.75-14.34,9.12-21.89l4.86,1.32c-0.25.91-.5,1.77-0.81,2.63A44.62,44.62,0,0,0,2236.66,4866.29Zm-4.11,23.71-3.95,3.9a109.7,109.7,0,0,0-13.28-14.64l1.07-1.52A81.367,81.367,0,0,1,2232.55,4890Zm-4.76-12.57a98.317,98.317,0,0,0-9.17-9.63l0.91-1.51a60.4,60.4,0,0,1,11.7,7.19Zm33.48-19.81h-18.64v-2.28h8.87c-1.83-2.89-4.11-6.03-5.43-7.7l1.22-1.32a40.8,40.8,0,0,1,8.11,6.59l-2.74,2.43h8.61v2.28Zm-16.77,18.9h14.24v15.81h-3.75v-2.94h-6.74v3.45h-3.75v-16.32Zm0.05-5.32v-2.13h14.04v2.13h-14.04Zm0.05-6.64v-2.18h14.04v2.18H2244.6Zm3.65,22.5h6.74v-8.26h-6.74v8.26Zm40.39-25.28-3.04,4.4a28.226,28.226,0,0,1-5.88-4.61v1.72h-14.59v-1.06a44.906,44.906,0,0,1-6.54,5.12l-1.01-1.27c6.43-5.42,10.08-12.21,12.16-20.01l4.61,1.26a13.48,13.48,0,0,1-.51,1.63C2277.18,4855.34,2281.75,4858.63,2288.64,4861.78Zm-27.92,5.97h23.86v22.45c0,3.3-3.39,4.46-7.8,1.72l0.15-.65h-2.78v-11.35h-2.99v11.6h-3.55v-11.6h-2.94v13.58h-3.95v-25.75Zm3.95,2.28v7.6h2.94v-7.6h-2.94Zm14.54-9.01a34.382,34.382,0,0,1-6.23-9.89,34.3,34.3,0,0,1-6.64,9.89h12.87Zm-8.05,9.01v7.6h2.99v-7.6h-2.99Zm6.53,0v7.6h2.84v-7.6h-2.84Zm2.84,18.65v-8.76h-2.84v10.28C2280.02,4890.56,2280.53,4890.15,2280.53,4888.68Zm30.6-12.46a80.284,80.284,0,0,1-14.95,9.42l-2.13-4.96a56.429,56.429,0,0,0,5.93-1.78v-15.86h-5.52v-2.28h5.52v-13.53h4.36v13.53h5.32v2.28h-5.32v14.24c2.07-.81,4.1-1.72,5.98-2.63Zm-4.61,13.37h33.03v2.28h-33.03v-2.28Zm33.03-37.7v2.28h-31.67v-2.28h16.22c-2.13-1.57-4.51-3.09-6.33-4.25l0.6-1.67a33.459,33.459,0,0,1,9.12,3.04l-1.67,2.88h13.73Zm-3.04,19.82h-26.04v-15.1h26.04v15.1Zm-23.96,14.54v-11.91h21.58v11.91h-21.58Zm19.71-27.46h-17.64v10.74h17.64v-10.74Zm-15.56,20.37h13.17v-2.64H2316.7v2.64Zm0,4.91h13.17v-2.79H2316.7v2.79Zm12.62-16.97h-11.96v-5.93h11.96v5.93Zm-3.65-4.11h-4.66v2.28h4.66v-2.28Z" transform="translate(-2141.25 -4845.97)"/>
</svg>
