<svg xmlns="http://www.w3.org/2000/svg" width="200.78" height="47.78" viewBox="0 0 200.78 47.78">
  <metadata><?xpacket begin="﻿" id="W5M0MpCehiHzreSzNTczkc9d"?>
<x:xmpmeta xmlns:x="adobe:ns:meta/" x:xmptk="Adobe XMP Core 5.6-c142 79.160924, 2017/07/13-01:06:39        ">
   <rdf:RDF xmlns:rdf="http://www.w3.org/1999/02/22-rdf-syntax-ns#">
      <rdf:Description rdf:about=""/>
   </rdf:RDF>
</x:xmpmeta>
                                                                                                    
                                                                                                    
                                                                                                    
                                                                                                    
                                                                                                    
                                                                                                    
                                                                                                    
                                                                                                    
                                                                                                    
                                                                                                    
                                                                                                    
                                                                                                    
                                                                                                    
                                                                                                    
                                                                                                    
                                                                                                    
                                                                                                    
                                                                                                    
                                                                                                    
                                                                                                    
                           
<?xpacket end="w"?></metadata>
<defs>
    <style>
      .cls-1 {
        fill-rule: evenodd;
      }
    </style>
  </defs>
  <path id="Path_97" data-name="Path 97" class="cls-1" d="M2516.16,3511.55l-3.7,5.78c-4.86-2.23-15.61-11.86-18.24-29.59-2.64,15.4-12.36,25.74-23.31,29.94l-0.91-1.72c8.82-5.02,16.72-13.32,19.1-29.18h-17.43v-2.79h17.79c0.1-1.17.2-2.38,0.25-3.6,0.15-3.09.2-6.74,0.25-10.08l5.17,0.15c0,4-.1,7.65-0.3,11.55l-0.15,1.98h19.1v2.79h-17.84C2499.69,3501.32,2509.27,3508.51,2516.16,3511.55Zm12.21-13.78h12.51v17.84l-4.15-.05v-3.4h-8.36v4.87h-4.36v-39.07h5.72a65.791,65.791,0,0,0,1.02-8.06l5.01,1.17a41.222,41.222,0,0,1-3.85,6.89h8.16v15.4h-4.15v-2.33h-7.55v6.74Zm0-9.02h7.55v-8.51h-7.55v8.51Zm0,11.3v9.83h8.36v-9.83h-8.36Zm27.91-24.27v7.45h9.08v25.28c0,3.7-3.75,5.58-8.72,1.32l0.56-1.77c3.24,0.96,3.9.66,3.9-1.17v-21.38h-4.82v31.87h-4.35v-31.87h-4.41v27.21h-4.26v-29.49h8.67v-7.45h-10.8v-2.28h25.85v2.28h-10.7Zm49.4,16.57h12.62v2.28h-16.17a65.46,65.46,0,0,1-9.06,4.46h19.25v18.54h-4.46v-2.78h-17.99v2.78h-4.46v-15.86c-4.51,1.32-8.56,2.18-11.55,2.74l-0.56-1.77a87.02,87.02,0,0,0,21.79-8.11h-20.22v-2.28h17.49v-5.32H2580.6v-2.28h11.76v-4.82h4.66v4.82h9.57v1.37a44.829,44.829,0,0,0,4.06-4.72l4.05,2.49A43.043,43.043,0,0,1,2605.68,3492.35Zm13.02-17.33v2.28h-12.11v4.16h-4.46v-4.16h-12.26v4.36h-4.46v-4.36h-11.24v-2.28h11.24v-4.56h4.46v4.56h12.26v-4.51h4.46v4.51h12.11Zm-10.84,26.35h-17.99v4.25h17.99v-4.25Zm0,6.53h-17.99v4.67h17.99v-4.67Zm-8.97-15.55a56.2,56.2,0,0,0,6.74-5.32h-8.61v5.32h1.87Zm38.81-9.37v34.25h-4.36v-27.62a40.641,40.641,0,0,1-6.99,7.1l-1.22-1.37c3.95-4.31,8.92-12.16,12.52-25.08l4.81,1.67A59.25,59.25,0,0,1,2637.7,3482.98Zm18.54-1.07v8.46h12.92v2.28h-12.92v8.87h13.08v2.28h-13.08v13.43h-4.46v-35.32h-3.14a44,44,0,0,1-8.26,10.64l-1.31-1.26c4.25-5.12,7.29-12.82,8.61-20.63l4.97,1.52a38.833,38.833,0,0,1-2.79,7.45h20.92v2.28h-14.54Z" transform="translate(-2470 -3469.91)"/>
</svg>
