<svg xmlns="http://www.w3.org/2000/svg" width="120.841" height="43.313" viewBox="0 0 120.841 43.313"><defs><style>.a{fill:#c01;}.b{fill:#fff;}</style></defs><rect class="a" width="120.806" height="43.313" transform="translate(0.035)"/><path class="b" d="M96.858,60.237a2.033,2.033,0,0,1-.721,2.165c-1.774.871-3.7,1.441-5.41,2.4-3.4.661-6.582,1.832-9.887,2.644a3.373,3.373,0,0,1-3.336-1.2c.18-.782-.933-1.353-.121-2.045a29.053,29.053,0,0,1,4.328-.481c1.653-1.352,3.517-1.532,5.619-1.8.332-.482.9-.421,1.294-.721.9-.722,2.1-.992,2.826-1.894,1.02-.842,2.374-.691,3.666-.51.6.421,1.472.63,1.742,1.441" transform="translate(-66.279 -55.119)"/><path class="b" d="M115.111,71.036a2.6,2.6,0,0,0-.061-2.013c-.06-.39.181-.691-.21-.873-.721-.51-1.383.3-2.1.422-.962.48-1.653,1.683-2.795,1.953-.871,1.112-2.165,1.533-3.245,2.254a7.112,7.112,0,0,1-4.268-.24c-.33-.571-1.022-.272-1.441-.633-1.023-.661-2.375-.661-3.1-1.8-.45-.813-1.773-.813-1.532-1.956a3.159,3.159,0,0,1,1.683-.721c2.074-.39,4.328-.089,6.342-.782,1.14-.3,2.343-.57,3.456-.96.42-.452,1.323-.18,1.652-.842a12.223,12.223,0,0,1,2.255-.36c.631-.512,1.563-.212,2.163-.813,1.232,0,2.163-.811,3.456-.721.963-.962,2.466-.571,3.608-1.082,1.684-.512,3.517-1.8,5.41-.782h.782c1.292.33,2.975.33,3.606,1.653a4.668,4.668,0,0,1-.871,2.374c-1.234.722-3.276,1.172-4.539.151-1.5-.962-3.337-.39-4.9.06-.421.481-1.142.481-1.383,1.172a7.33,7.33,0,0,0,.151,2.163c.572,1.2-.181,2.4.361,3.606a34.5,34.5,0,0,1,.661,5.77,54.1,54.1,0,0,0,.631,8.293c.18.934.542,1.954.662,3.037.57.661.06,1.532.421,2.283-.631,1.593-.031,3.877-1.865,4.689-.931,1.022-2.735.841-3.907.45-.81-.27-1.022-1.142-1.563-1.593,0-1.052-.751-2.044-.36-3.245a144.584,144.584,0,0,0,.842-20.345" transform="translate(-59.887 -54.437)"/><path class="b" d="M89.268,66.091A8.08,8.08,0,0,1,90.5,68.316c.631.69,1.353-.091,2.014-.152,1.082-1.111,2.465-2.555,4.388-2.374.781.3,1.773.27,2.163,1.082a1.792,1.792,0,0,1,.089,1.653c-.69,1.412-2.4,1.924-3.606,2.826-.962.51-2.254.871-2.735,1.953-.029,1.713,1.353,3.095,2.434,4.087,1.655,1.713,3.187,4.327,5.41,5.349,1.2.691,2.163,2.073,3.7,2.463.329.33.962.45,1.291.842.693.089.992,1.082,1.8.811a12.056,12.056,0,0,0,4.539,2.223c.421.3.991.541,1.231.933.542.12.782.691,1.083,1.082.149.452-.241.841-.361,1.232-.842.811-2.163.481-3.1,1.022-2.975.091-6.31.871-9.256.27l-3.306-2.524c-2.1-2.584-3.7-5.441-5.77-8.054-.241-.6-1.112-.841-1.383-1.531-1.022-.661-1.383-1.894-2.735-2.014a4.632,4.632,0,0,0-.721,2.584c-.332.721-.21,1.773-.631,2.524-.45.51-.27,1.26-.722,1.742-.029.6-.481.781-.51,1.383a17.007,17.007,0,0,1-4.838,5.89c-1.684.332-3.187,1.593-4.99.6a2.892,2.892,0,0,1-2.434-1.8c.241-.541-.45-.721-.45-1.172.33-.721-.661-1.413.3-1.862a1.3,1.3,0,0,1,.781-.934,2.494,2.494,0,0,1,2.465.573c.33.089.541-.18.782-.3.06-.45.751-.509.721-.99a5.831,5.831,0,0,0,1.744-2.615,4.437,4.437,0,0,0,.781-4.327c-1.111-.089-2.283.481-3.456.091-.782-.57-1.924-.871-2.314-1.742a3.753,3.753,0,0,1-1.083-2.1c.332-.9,1.593-.631,2.315-.781.661-.27,1.443-.33,2.1-.661,1.683-.332,2.675-1.833,4.388-2.074,1.02-.63,2.434-1.532,2.254-2.976-.512-1.171.3-2.193.12-3.456a2.25,2.25,0,0,1,1.232-1.232c.63-.18,1.352.091,2.013-.209.241.39.722.209,1.022.45" transform="translate(-67.646 -52.798)"/><path class="b" d="M126.421,72.678c1.381,1.5,2.884,3.336,1.953,5.559-.091.75-1.172.481-1.232,1.292a9.242,9.242,0,0,1-4.539-.272c-.029-.54-.421-.721-.871-1.02-1.744-1.593-3.095-3.787-2.314-5.981,1.742-1.412,4.147-.12,6.131,0a1.686,1.686,0,0,0,.873.422" transform="translate(-52.292 -50.819)"/><path class="b" d="M144.83,77.972c-.073.1-.091.236-.216.289l-2.6.036-.091.072c-.081.73-.027,1.524-.036,2.289l.108.091,2.246.019c.063.063.189.091.2.2.073.089-.044.155-.063.234l-.2.091-2.146.019c-.045.035-.108.045-.144.107v2.291c.009.144.161.125.252.153l2.146.027c.064.064.18.081.2.189-.028.1-.019.225-.135.261-.8.064-1.6-.036-2.381.089l-.081.109.036,2.2a1.149,1.149,0,0,0,.613.091,10.059,10.059,0,0,1,2.2.063.228.228,0,0,1,.045.308l-.127.081c-2.19.045-4.346.017-6.517.027a1.165,1.165,0,0,1-.974-.522,16.071,16.071,0,0,1-.109-2.074V79.235l-.017-.027c-.352.314-.577.829-1.036,1.062a.606.606,0,0,1-.416-.108.369.369,0,0,1-.063-.35,12.864,12.864,0,0,0,1.992-4.238c.181-.314.56-.306.885-.261a.607.607,0,0,1,.477.414l-.017.262A11.655,11.655,0,0,0,138,77.695l.036.044,2.407-.019a4.551,4.551,0,0,1,.694-1.28c.289-.388.406-1.072,1.01-1.1a1.007,1.007,0,0,1,.8.344.652.652,0,0,1-.234.63,11.312,11.312,0,0,0-1.255,1.381l.064.044,3.137.044" transform="translate(-46.873 -49.593)"/><path class="b" d="M144.181,78.079c.081-.091.155-.252.3-.28,2.237-.053,3.779-.081,6.041-.072.244-.172.587-.1.883-.144l2.949-.028c.242-.153.064-.513.153-.757.1-.477-.28-1.324.406-1.471.333-.044.8-.08.973.308v1.813l.064.089c1.3.053,2.543-.027,3.769.063.053.045.144.073.171.155.019.135-.008.288-.152.324-1.174.08-2.462.009-3.679.063-.027.045-.1.009-.127.045l-.061.108c-.047.838-.02,1.541-.028,2.4l.089.108,3.092.044c.092.091.245.208.155.37l-.155.153-3.111.036-4.651-.019c-.109-.081-.262-.161-.2-.342a.386.386,0,0,1,.306-.2l2.9-.017c.324-.117.1-.558.2-.783V78.269l-.136-.109c-1.216,0-2.362.02-3.569-.017a.286.286,0,0,0-.19-.063.588.588,0,0,1-.369.216l-5.5.045a2.3,2.3,0,0,1-.342-.072" transform="translate(-43.991 -49.589)"/><path class="b" d="M135.168,75.591a11.6,11.6,0,0,1,.044,1.5l.145.109c.8.089,1.613-.091,2.379.063.108.091.1.181.073.306a.282.282,0,0,1-.262.153l-4.85.036-1.948-.017c-.108-.027-.153-.109-.216-.2.008-.116.027-.27.171-.3.911-.055,1.966,0,2.921-.044a.254.254,0,0,0,.181-.172c.135-.568-.37-1.613.513-1.73.308.035.677-.028.849.3" transform="translate(-48.525 -49.592)"/><path class="b" d="M149.786,75.809a.247.247,0,0,1,.171.125.276.276,0,0,1-.135.37l-.452.045-4.436-.028c-.1-.027-.152-.108-.216-.189a.275.275,0,0,1,.108-.288,8.059,8.059,0,0,1,1.749-.063c1.019.008,2.154-.019,3.211.027" transform="translate(-43.815 -49.437)"/><path class="b" d="M133.524,77.335a.466.466,0,0,1,.172.506c-.064.441-.785.837-.3,1.3.181.432.7.813.839,1.226.035.053-.037.135-.037.2a.467.467,0,0,1-.522.155c-.362-.3-.631-.686-.992-.974A.439.439,0,0,0,132.4,80c-.4.494-.774,1.171-1.36,1.424a.505.505,0,0,1-.388-.234l.017-.217a19.975,19.975,0,0,0,1.948-3.568.738.738,0,0,1,.911-.073" transform="translate(-48.486 -48.957)"/><path class="b" d="M136.042,77.744c.037.46-.35.8-.522,1.208a7.872,7.872,0,0,0,.866,1.774c.063.109-.011.209-.064.308a.6.6,0,0,1-.5.108c-.342-.262-.6-.757-.929-1.064-.406.226-.469,1.091-1.127.758a.343.343,0,0,1-.127-.416,9.487,9.487,0,0,0,1.144-2.766.7.7,0,0,1,.452-.3c.306.027.658.063.8.386" transform="translate(-47.498 -48.906)"/><path class="a" d="M139.848,77.74c-.009.757.008,1.577-.027,2.181a10.084,10.084,0,0,1-2.029.045l-.045-.045v-2.2c.028-.234.272-.108.406-.153.55,0,1.136-.017,1.649.019Z" transform="translate(-46.128 -48.838)"/><path class="b" d="M149.741,78.59c.091.052.234.108.234.242a.361.361,0,0,1-.217.3l-.261.025h-4.544a.671.671,0,0,1-.234-.171.317.317,0,0,1,.216-.4l.109-.019Z" transform="translate(-43.816 -48.503)"/><path class="b" d="M149.675,79.969a.383.383,0,0,1,.217.181.26.26,0,0,1-.045.253.375.375,0,0,1-.352.108l-4.625-.02a.282.282,0,0,1-.135-.369c.072-.125.224-.125.352-.153,1.541-.027,3.02-.027,4.588,0" transform="translate(-43.814 -48.045)"/><path class="a" d="M139.813,79.871l-.027,2.425a18.407,18.407,0,0,1-2.029,0l-.044-.063.017-2.334c.044-.065.117-.065.18-.091a11.964,11.964,0,0,1,1.9.063" transform="translate(-46.139 -48.094)"/><path class="b" d="M135.048,80.174c.352.37.055.767.18,1.235.055.091.172.045.253.083h2.271c.091.044.226.08.245.2a.335.335,0,0,1-.217.324l-2.146.044c-.153.055.017.172.027.262a9.224,9.224,0,0,0,2.165,1.876c.089.19-.055.342-.2.432h-.369A19.649,19.649,0,0,1,135.12,83.1l-.072.045a17.266,17.266,0,0,1,.091,2.893c-.173.344-.577.352-.911.325a.579.579,0,0,1-.433-.325l-.044-.278a14.135,14.135,0,0,1,.2-2.814c-.2-.163-.206.172-.369.261.009.108-.136.1-.155.2a13.722,13.722,0,0,1-1.3,1.318c-.009.135-.18.135-.234.216-.316.269-.711.821-1.235.541a.305.305,0,0,1-.081-.28c.063-.163.261-.278.4-.388a10.517,10.517,0,0,0,2.147-2.623c0-.045.008-.1-.047-.128-.829-.053-1.64.02-2.47-.063-.089-.081-.189-.242-.081-.369l.189-.108,2.885-.027c.081.008.153-.083.189-.145.081-.45-.206-1.082.325-1.3.3-.055.7-.109.929.125" transform="translate(-48.541 -48.028)"/><path class="b" d="M151.783,80.408c.3.269.053.694.125,1.063.011,1.326-.017,2.426.028,3.661.064.153.233.18.36.234h1.93a1.493,1.493,0,0,0,.955-1.236.746.746,0,0,1,.56-.369.866.866,0,0,1,.8.35,1.679,1.679,0,0,1-.741,1.516c-1.2.5-2.795.208-4.128.261a1.151,1.151,0,0,1-1.019-.613l-.045-.234c.019-1.4.045-3.011.064-4.435.053-.208.278-.28.458-.344a.936.936,0,0,1,.65.145" transform="translate(-41.855 -47.943)"/><path class="b" d="M153.579,81.183a7.106,7.106,0,0,1,.947,1.541.518.518,0,0,1-.108.432,1.019,1.019,0,0,1-.775.236c-.786-.117-.533-1.046-.894-1.533-.116-.477-.649-.8-.558-1.326.127-.217.424-.206.649-.172a4.74,4.74,0,0,1,.739.822" transform="translate(-41.334 -47.915)"/><path class="b" d="M155.677,81.53c.416.5.83.983,1.191,1.5a.617.617,0,0,1-.108.558,1.062,1.062,0,0,1-.929.217c-.416-.225-.433-.722-.6-1.1a10.443,10.443,0,0,0-.955-1.5.384.384,0,0,1,.091-.389.681.681,0,0,1,.513-.063c.333.145.541.552.8.775" transform="translate(-40.647 -47.785)"/><path class="b" d="M151.588,81.183a7.917,7.917,0,0,1-.216,1.948c-.2.568-.063,1.415-.783,1.64a1.971,1.971,0,0,1-.759-.108.947.947,0,0,1-.494.8l-.514.171a28.885,28.885,0,0,1-3.444-.045,1.146,1.146,0,0,1-.6-.388l-.091-.234L144.727,82a1.036,1.036,0,0,1,.432-.6,2.345,2.345,0,0,1,1.174-.155h2.634c1.324.145.63,1.633.846,2.49.1.055.155-.1.216-.2a7.176,7.176,0,0,0,.65-2.335c.063-.216.288-.206.452-.261a.68.68,0,0,1,.458.244" transform="translate(-43.825 -47.717)"/><path class="a" d="M148.111,81.69l-.027,3.1-.109.08-2.226-.017-.045-.044c.009-1.01-.009-2.129.028-3.093.027-.108.153-.072.233-.108l2.084.019Z" transform="translate(-43.485 -47.494)"/><path class="a" d="M139.791,82.178l.044.047c-.025.785.064,1.551,0,2.243l-.044.047h-1.984l-.072-.047c-.008-.775-.063-1.523-.017-2.243a.164.164,0,0,1,.127-.108,12.438,12.438,0,0,1,1.946.061" transform="translate(-46.144 -47.327)"/><rect class="b" width="15.251" height="0.648" transform="translate(0 16.726)"/><rect class="b" width="6.763" height="0.648" transform="translate(31.781 16.726)"/><rect class="b" width="4.358" height="0.648" transform="translate(50.715 16.726)"/><rect class="b" width="60.359" height="0.648" transform="translate(60.482 16.87)"/><rect class="b" width="9.974" height="0.648" transform="translate(0.018 28.747)"/><rect class="b" width="2.555" height="0.648" transform="translate(20.511 28.747)"/><rect class="b" width="21.187" height="0.648" transform="translate(32.683 28.747)"/><rect class="b" width="8.565" height="0.648" transform="translate(61.536 28.747)"/><rect class="b" width="4.959" height="0.648" transform="translate(75.812 28.747)"/><rect class="b" width="4.157" height="0.648" transform="translate(116.684 28.747)"/><rect class="b" width="10.125" height="0.649" transform="translate(0.018 33.553)"/><rect class="b" width="6.762" height="0.649" transform="translate(19.309 33.553)"/><rect class="b" width="12.923" height="0.649" transform="translate(40.647 33.553)"/><rect class="b" width="18.484" height="0.649" transform="translate(62.286 33.553)"/><rect class="b" width="4.157" height="0.649" transform="translate(116.684 33.553)"/><rect class="b" width="4.564" height="0.648" transform="translate(0.018 36.107)"/><rect class="b" width="9.767" height="0.648" transform="translate(18.108 36.107)"/><rect class="b" width="7.213" height="0.648" transform="translate(45.906 36.107)"/><rect class="b" width="17.884" height="0.648" transform="translate(63.037 36.107)"/><rect class="b" width="4.457" height="0.648" transform="translate(116.384 36.107)"/><rect class="b" width="4.715" height="0.648" transform="translate(0.018 40.466)"/><rect class="b" width="16.68" height="0.648" transform="translate(14.951 40.466)"/><rect class="b" width="6.612" height="0.648" transform="translate(46.808 40.466)"/><rect class="b" width="58.104" height="0.648" transform="translate(62.737 40.466)"/></svg>