<svg xmlns="http://www.w3.org/2000/svg" xmlns:xlink="http://www.w3.org/1999/xlink" width="207" height="54" viewBox="0 0 207 54">
  <metadata><?xpacket begin="﻿" id="W5M0MpCehiHzreSzNTczkc9d"?>
<x:xmpmeta xmlns:x="adobe:ns:meta/" x:xmptk="Adobe XMP Core 5.6-c142 79.160924, 2017/07/13-01:06:39        ">
   <rdf:RDF xmlns:rdf="http://www.w3.org/1999/02/22-rdf-syntax-ns#">
      <rdf:Description rdf:about=""/>
   </rdf:RDF>
</x:xmpmeta>
                                                                                                    
                                                                                                    
                                                                                                    
                                                                                                    
                                                                                                    
                                                                                                    
                                                                                                    
                                                                                                    
                                                                                                    
                                                                                                    
                                                                                                    
                                                                                                    
                                                                                                    
                                                                                                    
                                                                                                    
                                                                                                    
                                                                                                    
                                                                                                    
                                                                                                    
                                                                                                    
                           
<?xpacket end="w"?></metadata>
<defs>
    <style>
      .cls-1 {
        fill: #fff;
        fill-rule: evenodd;
        filter: url(#filter);
      }
    </style>
    <filter id="filter" x="2253" y="8711" width="207" height="54" filterUnits="userSpaceOnUse">
      <feOffset result="offset" dx="0.707" dy="0.707" in="SourceAlpha"/>
      <feGaussianBlur result="blur" stdDeviation="1.732"/>
      <feFlood result="flood" flood-opacity="0.15"/>
      <feComposite result="composite" operator="in" in2="blur"/>
      <feBlend result="blend" in="SourceGraphic"/>
    </filter>
  </defs>
  <path id="Path_113" data-name="Path 113" class="cls-1" d="M2261.92,8729.21c0,18.75-1.77,25.49-5.92,30.36l-1.52-1.07c3.09-6.03,2.99-10.13,2.99-28.43v-15.55l40.13-.1v2.23h-35.68v12.56Zm21.03,26.25h15.1v2.28h-37.34v-2.28h7.19v-11.5h4.16v11.5h6.43v-14.64h4.46v6.48h11.2v2.28h-11.2v5.88Zm-12.82-13.12v-8.11a27.334,27.334,0,0,1-6.79,7.45l-1.01-1.27a34.836,34.836,0,0,0,6.74-11.3h-5.42v-2.28h6.48v-3.44c-2.12.25-4.15,0.45-6.13,0.55l-0.2-1.72a37.3,37.3,0,0,0,12.97-4.36l3.24,3.4c-2.07.61-4.05,1.11-5.92,1.47v4.1h5.77v2.28h-5.77v0.66a24.224,24.224,0,0,1,5.82,4.41l-2.68,2.69a53.214,53.214,0,0,0-3.14-4.41v9.88h-3.96Zm15.76,0.15v-9.88a24.528,24.528,0,0,1-8.66,8.36l-0.91-1.32a30.38,30.38,0,0,0,7.95-10.49h-3.7v-2.28h5.32v-3.49c-1.87.35-3.9,0.6-6.08,0.86l-0.35-1.72a36.549,36.549,0,0,0,13.02-4.97l3.04,3.39a49.862,49.862,0,0,1-5.67,1.68v4.25h6.73v2.28h-5.77a20.857,20.857,0,0,0,7.85,8.01l-2.63,3.75a22.037,22.037,0,0,1-6.18-9.43v11h-3.96Zm24.82-14.19v-13.88h37.3v11.5h-32.53v3.29c0,12.93-2.23,23.97-8.47,30.56l-1.41-1.17C2309.7,8751.41,2310.71,8743.5,2310.71,8728.3Zm32.74-11.6h-27.97v6.94h27.97v-6.94Zm-21.49,15.5v21.49h22.6V8732.2h4.56v26.96h-4.56v-3.19h-22.6v3.39h-4.56V8732.2h4.56Zm9.07,14.65v-8.46h-7.29v-2.28h7.29v-8.31h4.46v8.31h6.94v2.28h-6.94v8.46h7.75v2.28h-20.06l-0.05-2.28h7.9Zm34.25,12.21h-4.66v-43.02h39.27v42.77h-4.67v-4.36h-29.94v4.61Zm29.94-40.74h-29.94v33.85h29.94v-33.85Zm-5.57,8.26v19.46h-4.46v-3.91h-10.33v3.91h-4.46v-19.46h19.25Zm-14.79,2.13v11.3h10.33v-11.3h-10.33Zm59.17,27.16h-12.72v2.94h-3.95v-16.62a24.509,24.509,0,0,1-1.67,2.12,45.441,45.441,0,0,1-5.12,15.15l-1.62-.96c2.53-6.84,3.45-15.71,3.45-25.69v-17.08l3.95,0.87a46.92,46.92,0,0,0,13.12-4.41l3.35,3.65c-3.96,1.26-9.73,2.07-16.07,2.58v1.93h15.71v8.21h-15.71v2.83c0,2.74-.15,5.48-0.4,8.06a49.967,49.967,0,0,0,3.14-10.39l3.85,1.12a34.9,34.9,0,0,1-1.93,5.01h4.97c-0.71-1.92-1.52-3.85-2.23-5.47l1.42-.76a24.624,24.624,0,0,1,4.26,5.27l-1.78.96h5.78v2.13h-5.17v3.85h4.36v2.03h-4.36v3.95h4.41v2.03h-4.41v4.56h5.37v2.13Zm-17.28-33.34v3.85h11.56v-3.85h-11.56Zm8.26,14.79h-3.7v3.85h3.7v-3.85Zm0,5.88h-3.7v3.95h3.7v-3.95Zm0,5.98h-3.7v4.56h3.7v-4.56Zm15.05,0.35,3.95,2.84a39.906,39.906,0,0,1-12.77,8.01l-0.91-1.63A31.4,31.4,0,0,0,2440.06,8749.53Zm1.42-31.97h-7.9v-2.28H2454v2.28h-7.55a48.1,48.1,0,0,1-3.7,5.62h9.37v25.39H2435.4v-25.39h5.22C2440.97,8721.36,2441.33,8719.13,2441.48,8717.56Zm6.38,7.9h-8.2v5.27h8.2v-5.27Zm0,7.55h-8.2v5.38h8.2v-5.38Zm0,7.66h-8.2v5.62h8.2v-5.62Zm7.96,15.2-3.14,3.85a102.944,102.944,0,0,0-8.16-8.92l1.01-1.57A42.12,42.12,0,0,1,2455.82,8755.87Z" transform="translate(-2253 -8711)"/>
</svg>
