<svg xmlns="http://www.w3.org/2000/svg" width="200.56" height="47.9" viewBox="0 0 200.56 47.9">
  <metadata><?xpacket begin="﻿" id="W5M0MpCehiHzreSzNTczkc9d"?>
<x:xmpmeta xmlns:x="adobe:ns:meta/" x:xmptk="Adobe XMP Core 5.6-c142 79.160924, 2017/07/13-01:06:39        ">
   <rdf:RDF xmlns:rdf="http://www.w3.org/1999/02/22-rdf-syntax-ns#">
      <rdf:Description rdf:about=""/>
   </rdf:RDF>
</x:xmpmeta>
                                                                                                    
                                                                                                    
                                                                                                    
                                                                                                    
                                                                                                    
                                                                                                    
                                                                                                    
                                                                                                    
                                                                                                    
                                                                                                    
                                                                                                    
                                                                                                    
                                                                                                    
                                                                                                    
                                                                                                    
                                                                                                    
                                                                                                    
                                                                                                    
                                                                                                    
                                                                                                    
                           
<?xpacket end="w"?></metadata>
<defs>
    <style>
      .cls-1 {
        fill: #009ce5;
        fill-rule: evenodd;
      }
    </style>
  </defs>
  <path id="Path_147" data-name="Path 147" class="cls-1" d="M898.593,6882.55h-9.819v7.95c0,4.35-5.061,5.77-12.4.86l0.555-1.72c6.986,1.62,7.29.96,7.29-1.27v-5.82H854v-2.27h30.219v-3.9h4.555v3.9h9.819v2.27Zm-24.548-28.34H855.469v-2.28h18.576v-4.45H878.6v4.45h18.88v2.28H878.6v2.88h15.387V6870h-4.606a31.29,31.29,0,0,1,6.933,6.07l-3.442,2.89c-0.606-1.11-1.568-2.58-2.581-4.05-8.908,1.52-25.459,2.48-33.508,2.68l-1.061-4.3c4.656,0.25,11.59.36,18.322,0.36V6870H859.061v-12.91h14.984v-2.88Zm-10.628,8.2h10.628v-3.04H863.417v3.04Zm10.628,5.31v-3.19H863.417v3.19h10.628Zm-8.655,15.04a33.726,33.726,0,0,1,9.414,5.56l-2.987,3.55a104.584,104.584,0,0,0-7.44-7.55Zm13.211-23.39v3.04h11.034v-3.04H878.6Zm11.034,5.16H878.6v3.19h11.034v-3.19Zm-2.279,6.28,0.811-.81H878.6v3.59c4-.1,7.694-0.2,10.528-0.4C888.47,6872.33,887.863,6871.52,887.356,6870.81Zm63.669,17.16-1.266,5.06a147.772,147.772,0,0,1-22.27,0c-3.9-.2-11.035-0.71-14.982-8.45a20.945,20.945,0,0,1-5.771,10.22l-1.315-1.21c3.086-3.9,3.9-10.68,3.9-20.86l4.3,0.46a64.8,64.8,0,0,1-.555,8.6,14.508,14.508,0,0,0,3.188,3.85v-15.13H906.18v-2.28H928.6v2.28h-7.9v6.07H928v2.28h-7.288v9.21a22.823,22.823,0,0,0,6.327.96A143.219,143.219,0,0,0,951.025,6887.97Zm-25.408-23.13H909.064v-15.39h16.553v15.39Zm-4.152-13.11h-8.148v4h8.148v-4Zm0,6.27h-8.148v4.56h8.148V6858Zm12.351,21.42,4.2,2.63a40.82,40.82,0,0,1-12.755,6.07l-0.709-1.52A27.369,27.369,0,0,0,933.816,6879.42Zm2.683-26.68H927.59v-2.28h21.918v2.28h-8.352a25.781,25.781,0,0,1-3.342,4.56h9.112v21.1H929.514v-21.1h5.972A42.794,42.794,0,0,0,936.5,6852.74Zm6.377,6.68h-9.313v4.05h9.313v-4.05Zm0,6.08h-9.313v4.15h9.313v-4.15Zm0,6.17h-9.313v4.61h9.313v-4.61Zm-2.936,7.54a37.054,37.054,0,0,1,10.174,4.71l-2.683,3.7a67.467,67.467,0,0,0-8.3-6.74Zm30.92,1.67h9.061v2.28H970.86v11.44h-4.454v-11.44H957.5v-2.28h8.908l0.05-6.12h-7.642v-2.28h4.707a74.376,74.376,0,0,0-3.341-7.79l1.063-.76H957.7v-2.28h8.655v-5.16h-7.441v-2.28h7.441v-6.58h4.454v6.58H978.4v2.28H970.81v5.16h9.06v2.28h-6.629l3.846,1.77a46.745,46.745,0,0,1-5.264,6.78h6.529v2.28H970.91Zm-1.467-8.4a57.466,57.466,0,0,0,3.24-8.55H961.749a32.964,32.964,0,0,1,5.872,7.23l-2.429,1.32h4.2Zm33.707,17.06-3.135,4.76a28.682,28.682,0,0,1-6.732-6.13,29.381,29.381,0,0,1-7.035,6.28l-1.165-1.37v1.67h-4.454v-44.39h18.577c0,5.62,0,7.14-.153,9.77-0.405,6.63-5.011,7.04-11.9,2.18l0.558-1.78c6.277,1.93,6.833.97,6.933-1.16,0.1-1.97.1-2.68,0.1-6.73h-9.668v16.15h10.123l1.063-1.02,4.251,1.32a40.175,40.175,0,0,1-4.808,15.59A32.823,32.823,0,0,0,1003.1,6889.54Zm-11.79-4.2a34.94,34.94,0,0,1-4.4-14.38h-1.872v21.92A32.553,32.553,0,0,0,991.31,6885.34Zm-2.582-14.38a31.043,31.043,0,0,0,4.353,10.78,41.511,41.511,0,0,0,2.633-10.78h-6.986Zm55.972,9.62h9.67v2.28h-9.67v6.37c0,5.42-4.6,7.9-12.65,1.68l0.61-1.57c7.03,2.17,7.69,1.36,7.69-1.67v-4.81h-30.17v-2.28h30.17v-3.09c-1.97,0-3.75-.1-5.67-0.2-2.48-.15-10.73-0.91-14.68-5.87a26.38,26.38,0,0,1-6.33,7.44l-2.38-2.84a32.852,32.852,0,0,0,6.43-5.56v-6.48h-5.92v-2.23h10.28v8.91c1.72,1.72,4.96,2.93,10.93,3.19a157.9,157.9,0,0,0,21.56-1.22l-1.11,4.41c-3.54.2-6.38,0.35-8.76,0.4v3.14Zm-27.23-20.2c-1.57-2.07-3.64-4.25-5.16-5.87l1.06-1.47a46.354,46.354,0,0,1,6.83,4.2Zm-3.34-11.84,0.96-1.52a31.406,31.406,0,0,1,7.24,4.25l-2.68,3.14A78.974,78.974,0,0,0,1014.13,6848.54Zm6.78,35.13a32.138,32.138,0,0,1,8.4,4.81l-2.78,3.49a72.972,72.972,0,0,0-6.58-6.73Zm14.53-28.75h-12.25v-2.13h9.92a51.6,51.6,0,0,0-4.3-4.4l1.01-1.47a25.793,25.793,0,0,1,7.34,3.69l-1.82,2.18h5.41a26.465,26.465,0,0,0,2.08-5.82l4.76,1.77a27.946,27.946,0,0,1-4,4.05h10.22v2.13h-14.37a24.151,24.151,0,0,1-1.72,2.28h12.3v14.07h-23.49V6857.2h8.55C1035.24,6856.44,1035.34,6855.68,1035.44,6854.92Zm10.43,4.4h-15.19v1.98h15.19v-1.98Zm0,3.8h-15.19v2.07h15.19v-2.07Zm0,3.89h-15.19v2.08h15.19v-2.08Z" transform="translate(-854 -6846.91)"/>
</svg>
