<svg xmlns="http://www.w3.org/2000/svg" width="198.19" height="47.93" viewBox="0 0 198.19 47.93">
  <metadata><?xpacket begin="﻿" id="W5M0MpCehiHzreSzNTczkc9d"?>
<x:xmpmeta xmlns:x="adobe:ns:meta/" x:xmptk="Adobe XMP Core 5.6-c142 79.160924, 2017/07/13-01:06:39        ">
   <rdf:RDF xmlns:rdf="http://www.w3.org/1999/02/22-rdf-syntax-ns#">
      <rdf:Description rdf:about=""/>
   </rdf:RDF>
</x:xmpmeta>
                                                                                                    
                                                                                                    
                                                                                                    
                                                                                                    
                                                                                                    
                                                                                                    
                                                                                                    
                                                                                                    
                                                                                                    
                                                                                                    
                                                                                                    
                                                                                                    
                                                                                                    
                                                                                                    
                                                                                                    
                                                                                                    
                                                                                                    
                                                                                                    
                                                                                                    
                                                                                                    
                           
<?xpacket end="w"?></metadata>
<defs>
    <style>
      .cls-1 {
        fill-rule: evenodd;
      }
    </style>
  </defs>
  <path id="Path_109" data-name="Path 109" class="cls-1" d="M1714.03,7685.09c-2.08-1.21-4.46-3.49-6.49-7.65a39.524,39.524,0,0,1-11.5,7.04l-0.91-1.62a38.165,38.165,0,0,0,10.89-8.92,65.642,65.642,0,0,1-3.19-17.63h-9.22l-0.05,8.16c2.63-.86,5.11-1.72,7.6-2.69l0.76,1.68a70.178,70.178,0,0,1-8.36,4.76l-0.11,12.77c-0.05,6.33-4.91,8.31-12.92,2.38l0.61-1.72c6.44,1.67,8.01,1.72,8.01-2.08v-9.48a93.146,93.146,0,0,1-9.38,3.2l-1.77-5.07a97.827,97.827,0,0,0,11.15-2.43l0.05-9.48h-10.95v-2.28h10.95v-6.59c-3.09.61-6.39,1.07-9.68,1.42l-0.35-1.82c7.8-1.88,12.92-3.5,17.88-6.74l4.11,3.7a38.254,38.254,0,0,1-7.45,2.48l-0.05,7.55h9.07a7.525,7.525,0,0,1-.05-1.06c-0.11-3.09-.26-9.53-0.31-13.13h4.46c0.05,3.96.15,9.43,0.26,12.67,0,0.51.05,1.01,0.05,1.52h14.39v2.28h-14.24a64.055,64.055,0,0,0,2.02,13.18,49.972,49.972,0,0,0,4.92-10.44l4.56,2.02a53.91,53.91,0,0,1-7.85,12.93c2.28,5.21,5.11,7.04,6.79,7.55s1.82-2.28,1.52-8.72h1.82C1724.77,7683.57,1722.59,7689.96,1714.03,7685.09Zm0.96-33.54a108.1,108.1,0,0,0-5.62-9.53l1.36-1.32a37.005,37.005,0,0,1,8.36,7.71Zm48.54,18.09a22.118,22.118,0,0,1-3.81,7.9,58.351,58.351,0,0,1,12.32,4.56l-3.04,4.97a76.136,76.136,0,0,0-12.32-6.49c-5.52,4.36-13.98,5.98-26.29,6.49l-0.31-1.83c9.68-.91,17.08-2.68,22.1-6.28-2.39-.81-4.92-1.52-7.86-2.33-1.11,1.52-2.08,2.79-2.68,3.5l-3.7-2.18a96.752,96.752,0,0,0,5.87-8.31h-13.12v-2.28h14.54c1.02-1.67,1.98-3.4,2.74-4.97h-13.02v-12.46h10.18v-4.97H1731.6v-2.28h41.35v2.28h-13.63v4.97h10.39v12.46h-20.27l3.24,1.17c-0.5,1.06-1.22,2.38-2.08,3.8h23.31v2.28h-10.38Zm-18.4-17.43h-5.83v7.9h5.83v-7.9Zm13.58,17.43h-9.52c-1.17,1.77-2.39,3.6-3.6,5.27,3.14,0.4,6.28.91,9.37,1.52A17.8,17.8,0,0,0,1758.71,7669.64Zm-9.32-19.71h5.67v-4.97h-5.67v4.97Zm0,10.18h5.67v-7.9h-5.67v7.9Zm9.93,0h6.03v-7.9h-6.03v7.9Zm67.99,8.26-2.43,5.17c-7.3-2.13-15.5-6.54-20.12-15.1-5.06,7.19-13.17,11.76-23.05,14.49l-0.66-1.72c7.04-2.48,12.87-5.98,17.13-11l-0.31-.81c-4.1,1.62-9.78,3.4-13.37,3.7l-0.92-4.15a41.218,41.218,0,0,0,4.36-.11,27.233,27.233,0,0,0,2.48-7.19l4.41,1.27a30.052,30.052,0,0,1-4.25,5.67c2.33-.25,4.66-0.61,6.58-0.91a21.465,21.465,0,0,0-1.41-2.84l1.31-1.01a23.923,23.923,0,0,1,3.3,3.44,30.616,30.616,0,0,0,2.63-4.91l4.31,1.77c-0.46.91-.91,1.83-1.42,2.64a10.48,10.48,0,0,0,1.22,1.72c0.5,0,1.01-.05,1.52-0.05a39.1,39.1,0,0,0,2.02-8.11l4.31,1.32a36.884,36.884,0,0,1-4.06,6.64,62.627,62.627,0,0,0,8.16-1.17,36.608,36.608,0,0,0-1.82-3.24l1.37-1.07a31.988,31.988,0,0,1,6.48,7.25l-3.9,2.08c-0.35-1.12-.81-2.23-1.26-3.3a50.191,50.191,0,0,1-9.68,2.69C1816.16,7666.14,1824.27,7667.81,1827.31,7668.37Zm-10.28,4.97,3.95,2.94c-7.25,6.18-20.47,10.03-33.85,10.79l-0.45-1.78C1799.65,7683.67,1810.95,7679.06,1817.03,7673.34Zm-29.6-26.66c2.13,0.16,4.31.26,6.49,0.31a34.866,34.866,0,0,0,5.68-7.86l5.11,2.03a38.534,38.534,0,0,1-7.34,5.88c5.93,0.05,11.65-.2,16.16-0.61a40.841,40.841,0,0,0-3.29-3.29l0.96-1.37a33.521,33.521,0,0,1,9.98,6.99l-3.49,3.14a37.163,37.163,0,0,0-2.74-3.8,139.336,139.336,0,0,1-26.6,2.99Zm0.46,32.94c9.43-2.23,16.87-5.47,22.6-11.2l3.65,2.69c-5.47,5.17-15.71,8.86-25.69,10.28Zm20.22-13.23c-4.46,4.41-12.21,7.81-19.46,9.07l-0.51-1.67c7.05-2.13,12.93-5.72,16.22-9.93Zm38.35-16.77h10.34c-0.26,18.04-.92,27.47-1.73,31.22-0.96,4.4-5.67,6.48-13.37.25l0.7-1.67c6.85,2.02,7.61,2.02,8.21-1.62,0.56-3.4,1.22-12.67,1.17-25.9h-5.42c-0.56,15.61-2.74,27.47-12.16,35.07l-1.27-1.32c7.04-7.91,8.31-19.81,8.56-33.75h-7.5v-2.28h7.55c0.05-3.19.05-6.43,0.05-9.78h4.97C1846.56,7643.24,1846.51,7646.48,1846.46,7649.62Zm29.74-2.48v36.58h-4.56v-4.61h-7.09v5.22h-4.46v-37.19h16.11Zm-4.56,2.28h-7.09v27.41h7.09v-27.41Z" transform="translate(-1678 -7639.13)"/>
</svg>
