<svg xmlns="http://www.w3.org/2000/svg" width="198.34" height="48.25" viewBox="0 0 198.34 48.25">
  <metadata><?xpacket begin="﻿" id="W5M0MpCehiHzreSzNTczkc9d"?>
<x:xmpmeta xmlns:x="adobe:ns:meta/" x:xmptk="Adobe XMP Core 5.6-c142 79.160924, 2017/07/13-01:06:39        ">
   <rdf:RDF xmlns:rdf="http://www.w3.org/1999/02/22-rdf-syntax-ns#">
      <rdf:Description rdf:about=""/>
   </rdf:RDF>
</x:xmpmeta>
                                                                                                    
                                                                                                    
                                                                                                    
                                                                                                    
                                                                                                    
                                                                                                    
                                                                                                    
                                                                                                    
                                                                                                    
                                                                                                    
                                                                                                    
                                                                                                    
                                                                                                    
                                                                                                    
                                                                                                    
                                                                                                    
                                                                                                    
                                                                                                    
                                                                                                    
                                                                                                    
                           
<?xpacket end="w"?></metadata>
<defs>
    <style>
      .cls-1 {
        fill: #009ce5;
        fill-rule: evenodd;
      }
    </style>
  </defs>
  <path id="Path_93" data-name="Path 93" class="cls-1" d="M1141.92,2173.66a20.05,20.05,0,0,1,3.65,5.53l-2.83,1.16c-0.21-.86-0.46-1.67-0.71-2.48a65.739,65.739,0,0,1-10.95,2.58l-0.96-3.34h2.83c1.32-1.17,2.79-2.59,4.11-4a42.223,42.223,0,0,1-5.83,1.31l-0.81-3.19c0.71,0.05,1.37.05,1.98,0.1a31.925,31.925,0,0,0,3.44-6.28h-6.48v32.38H1125v-44.9h18.09v12.52h-6.89l3.24,1.62a36.906,36.906,0,0,1-5.12,4.66c1.37,0,2.74-.1,4.51-0.2a22.972,22.972,0,0,0,2.08-2.74l3.35,1.83a49.111,49.111,0,0,1-8.77,6.74c2.03-.1,4.05-0.26,6.03-0.46-0.26-.81-0.56-1.52-0.81-2.13Zm-12.56-15.91h9.47v-2.94h-9.47v2.94Zm0,5.07h9.47v-2.94h-9.47v2.94Zm14.59,18.04c0.05,2.13.05,4.51-.05,6.08-0.46,7.3-6.33,9.07-11.35,9.83l-0.56-1.72c3.65-1.02,6.44-2.03,7.65-5.43h-6.94v-8.15h3.65v6.08h3.8l0.15-1.93c0.05-1.27.05-3.09,0-4.76h3.65Zm21.23-28.33v40.79c0,4.11-4.3,5.78-11.55,1.32l0.51-1.77c5.92,1.37,6.69,1.11,6.69-1.57v-26.2h-9.79l3.3,1.57a44.106,44.106,0,0,1-4.92,4.81c1.27,0,2.54,0,4.16-.1a30.368,30.368,0,0,0,1.77-2.83l3.34,2.02a38.994,38.994,0,0,1-7.65,6.44c1.83-.1,3.55-0.26,5.33-0.41a16.285,16.285,0,0,0-.87-2.08l1.17-.76a21.513,21.513,0,0,1,3.9,5.68l-2.99,1.22-0.76-2.69a56.3,56.3,0,0,1-10.23,2.18l-0.87-3.09c1.02,0.05,1.98.05,2.89,0.05a32.883,32.883,0,0,0,3.55-3.85,49.374,49.374,0,0,1-5.83,1.31l-0.86-3.24c0.76,0.05,1.42.05,2.03,0.1a27.259,27.259,0,0,0,3.29-6.33h-3.44v-12.57h17.83Zm-6.99,37.09h-7.7v6.13h-3.75v-14.84h3.75v6.64h4.05v-6.18h3.65v8.25Zm2.64-34.81h-9.23v2.94h9.23v-2.94Zm0,5.07h-9.23v2.99h9.23v-2.99Zm59.58,10.34-3.85,4.3a58.087,58.087,0,0,1-9.48-16.92,45.961,45.961,0,0,1-11.45,17.08l-0.71-.76c-0.15,6.18-.56,14.54-1.47,18.39-1.32,5.62-6.64,5.57-11.86.71l0.76-1.62c5.53,1.82,6.29,1.57,6.89-1.52a121.464,121.464,0,0,0,1.12-17.89h-5.68c-0.45,10.03-2.93,18.19-9.57,26.25l-1.32-1.32c4.81-8.72,6.28-15.71,6.28-28.68v-6.08h-5.47v-2.28h11a67.951,67.951,0,0,0-5.63-8.56l1.32-1.32a37.4,37.4,0,0,1,8.56,7.45l-2.83,2.43h10.28v2.28h-12.51v7.8h10.13v2.74c4.41-5.67,7.75-14.34,9.12-21.89l4.86,1.32c-0.25.91-.5,1.77-0.81,2.63A44.62,44.62,0,0,0,1220.41,2170.22Zm-4.11,23.71-3.95,3.9a109.7,109.7,0,0,0-13.28-14.64l1.07-1.52A81.081,81.081,0,0,1,1216.3,2193.93Zm-4.76-12.56a98.317,98.317,0,0,0-9.17-9.63l0.91-1.52a61.275,61.275,0,0,1,11.71,7.19Zm61,10.28-3.7,5.78c-4.86-2.23-15.61-11.86-18.24-29.59-2.64,15.4-12.36,25.74-23.31,29.94l-0.91-1.72c8.81-5.02,16.72-13.33,19.1-29.19h-17.43v-2.78h17.79c0.1-1.17.2-2.39,0.25-3.6,0.15-3.09.2-6.74,0.25-10.09l5.17,0.16c0,4-.1,7.65-0.3,11.55l-0.15,1.98h19.1v2.78h-17.84C1256.07,2181.42,1265.65,2188.61,1272.54,2191.65Zm12.2-13.78h12.52v17.84l-4.16-.06v-3.39h-8.36v4.86h-4.35v-39.06h5.72a66.036,66.036,0,0,0,1.02-8.06l5.01,1.16a41.357,41.357,0,0,1-3.85,6.9h8.16v15.4h-4.16v-2.33h-7.55v6.74Zm0-9.02h7.55v-8.51h-7.55v8.51Zm0,11.3v9.83h8.36v-9.83h-8.36Zm27.92-24.27v7.45h9.07v25.28c0,3.7-3.75,5.57-8.71,1.32l0.55-1.78c3.25,0.97,3.91.66,3.91-1.16v-21.38h-4.82v31.87h-4.36v-31.87h-4.4v27.21h-4.26v-29.49h8.66v-7.45h-10.79v-2.28h25.84v2.28h-10.69Z" transform="translate(-1125 -2150)"/>
</svg>
