<svg xmlns="http://www.w3.org/2000/svg" width="201.59" height="47.9" viewBox="0 0 201.59 47.9">
  <metadata><?xpacket begin="﻿" id="W5M0MpCehiHzreSzNTczkc9d"?>
<x:xmpmeta xmlns:x="adobe:ns:meta/" x:xmptk="Adobe XMP Core 5.6-c142 79.160924, 2017/07/13-01:06:39        ">
   <rdf:RDF xmlns:rdf="http://www.w3.org/1999/02/22-rdf-syntax-ns#">
      <rdf:Description rdf:about=""/>
   </rdf:RDF>
</x:xmpmeta>
                                                                                                    
                                                                                                    
                                                                                                    
                                                                                                    
                                                                                                    
                                                                                                    
                                                                                                    
                                                                                                    
                                                                                                    
                                                                                                    
                                                                                                    
                                                                                                    
                                                                                                    
                                                                                                    
                                                                                                    
                                                                                                    
                                                                                                    
                                                                                                    
                                                                                                    
                                                                                                    
                           
<?xpacket end="w"?></metadata>
<defs>
    <style>
      .cls-1 {
        fill: #009ce5;
        fill-rule: evenodd;
      }
    </style>
  </defs>
  <path id="Path_105" data-name="Path 105" class="cls-1" d="M958.643,5963.46l-3.6,2.78c-1.318-2.58-2.534-4.91-3.75-7.09v26.15h-4.357v-25.39a58.176,58.176,0,0,1-8.311,14.19l-1.368-1.17a76.977,76.977,0,0,0,8.615-21.33h-7.348v-2.28h8.412v-10.79H951.3v10.79h6.79v2.28H951.3v4.36A44.105,44.105,0,0,1,958.643,5963.46Zm21.332-21.59v42.97h-4.458v-4.21l-11.807.05v4.62l-4.458-.06v-43.37h20.723Zm-4.458,2.28-11.807.05v9.27l11.807-.05v-9.27Zm0,11.55-11.807.06v9.72l11.807-.05v-9.73Zm0,12.01-11.807.05v10.64l11.807-.05v-10.64Zm33.583-6.08a20.05,20.05,0,0,1,3.65,5.53l-2.83,1.16c-0.21-.86-0.46-1.67-0.71-2.48a65.753,65.753,0,0,1-10.949,2.58l-0.963-3.34h2.842c1.31-1.17,2.78-2.59,4.1-4a42.2,42.2,0,0,1-5.827,1.31l-0.811-3.19c0.709,0.05,1.368.05,1.977,0.1a31.876,31.876,0,0,0,3.441-6.28h-6.482v32.38h-4.357v-44.9h18.089v12.52h-6.89l3.24,1.62a36.906,36.906,0,0,1-5.12,4.66c1.37,0,2.74-.1,4.51-0.2a21.21,21.21,0,0,0,2.08-2.74l3.35,1.83a49.111,49.111,0,0,1-8.77,6.74c2.03-.1,4.05-0.26,6.03-0.46-0.26-.81-0.56-1.52-0.81-2.13Zm-12.562-15.91h9.472v-2.94h-9.472v2.94Zm0,5.07h9.472v-2.94h-9.472v2.94Zm14.592,18.04c0.05,2.13.05,4.51-.05,6.08-0.46,7.29-6.33,9.07-11.35,9.83l-0.557-1.72c3.647-1.02,6.437-2.03,7.647-5.43h-6.937v-8.15h3.647v6.08h3.8l0.15-1.93c0.05-1.27.05-3.09,0-4.76h3.65Zm21.23-28.33v40.79c0,4.11-4.3,5.78-11.55,1.32l0.51-1.77c5.92,1.36,6.69,1.11,6.69-1.57v-26.2h-9.78l3.29,1.57a44.106,44.106,0,0,1-4.92,4.81c1.27,0,2.54,0,4.16-.1a30.368,30.368,0,0,0,1.77-2.83l3.35,2.02a39.584,39.584,0,0,1-7.65,6.44c1.82-.1,3.54-0.26,5.32-0.41a16.285,16.285,0,0,0-.87-2.08l1.17-.76a21.513,21.513,0,0,1,3.9,5.68l-2.99,1.22-0.76-2.69a56.3,56.3,0,0,1-10.23,2.18l-0.87-3.09c1.02,0.05,1.98.05,2.89,0.05a33.705,33.705,0,0,0,3.55-3.85,49.374,49.374,0,0,1-5.83,1.31l-0.86-3.24c0.76,0.05,1.42.05,2.03,0.1a27.648,27.648,0,0,0,3.29-6.33h-3.44V5940.5h17.83Zm-6.99,37.09h-7.7v6.14h-3.75v-14.85h3.75v6.64h4.05v-6.19h3.65v8.26Zm2.64-34.81h-9.23v2.94h9.23v-2.94Zm0,5.07h-9.23v2.99h9.23v-2.99Zm27.05,24.07h9.07v2.28h-9.07v11.45h-4.46V5974.2h-8.92v-2.28h8.92l0.05-6.13H1043v-2.28h4.71a74.189,74.189,0,0,0-3.35-7.81l1.07-.76h-3.55v-2.28h8.67v-5.16h-7.45v-2.28h7.45v-6.59h4.46v6.59h7.6v2.28h-7.6v5.16h9.07v2.28h-6.64l3.85,1.78a47.994,47.994,0,0,1-5.27,6.79h6.54v2.28h-7.45Zm-1.47-8.41a58.461,58.461,0,0,0,3.24-8.57h-10.89a33.094,33.094,0,0,1,5.87,7.25l-2.43,1.32h4.21Zm33.74,17.07-3.14,4.77a28.726,28.726,0,0,1-6.74-6.13,29.5,29.5,0,0,1-7.04,6.28l-1.17-1.37v1.67h-4.46v-44.44h18.6c0,5.63,0,7.15-.15,9.78-0.41,6.64-5.02,7.05-11.91,2.18l0.56-1.77c6.28,1.92,6.84.96,6.94-1.17,0.1-1.97.1-2.68,0.1-6.73h-9.68v16.16h10.14l1.06-1.02,4.26,1.32a40.036,40.036,0,0,1-4.82,15.61A32.322,32.322,0,0,0,1087.33,5980.58Zm-11.8-4.2a34.992,34.992,0,0,1-4.41-14.39h-1.88v21.94A32.376,32.376,0,0,0,1075.53,5976.38Zm-2.59-14.39a31.235,31.235,0,0,0,4.36,10.79,41.56,41.56,0,0,0,2.64-10.79h-7Zm56.04,9.62h9.67v2.29h-9.67v6.38c0,5.42-4.62,7.9-12.67,1.67l0.61-1.57c7.04,2.18,7.7,1.37,7.7-1.67v-4.81h-30.2v-2.29h30.2v-3.09c-1.98,0-3.75-.1-5.68-0.2-2.48-.15-10.74-0.91-14.69-5.88a26.42,26.42,0,0,1-6.33,7.45l-2.39-2.84a32.916,32.916,0,0,0,6.44-5.57v-6.49h-5.93v-2.23h10.29v8.92c1.72,1.73,4.96,2.94,10.94,3.2a158.376,158.376,0,0,0,21.59-1.22l-1.12,4.41c-3.54.2-6.38,0.35-8.76,0.4v3.14Zm-27.26-20.21a76.714,76.714,0,0,0-5.17-5.88l1.06-1.47a44.387,44.387,0,0,1,6.84,4.21Zm-3.35-11.86,0.97-1.52a31.871,31.871,0,0,1,7.24,4.26l-2.69,3.14A77.257,77.257,0,0,0,1098.37,5939.54Zm6.79,35.17a32.355,32.355,0,0,1,8.41,4.81l-2.79,3.5a73.06,73.06,0,0,0-6.58-6.74Zm14.54-28.79h-12.26v-2.12h9.93a51.785,51.785,0,0,0-4.3-4.41l1.01-1.47a25.745,25.745,0,0,1,7.35,3.7l-1.83,2.18h5.42a26.007,26.007,0,0,0,2.08-5.83l4.76,1.77a27.546,27.546,0,0,1-4,4.06h10.24v2.12h-14.39a20.514,20.514,0,0,1-1.73,2.28h12.32v14.09h-23.52V5948.2h8.57C1119.5,5947.44,1119.6,5946.69,1119.7,5945.92Zm10.44,4.41h-15.2v1.98h15.2v-1.98Zm0,3.8h-15.2v2.08h15.2v-2.08Zm0,3.9h-15.2v2.08h15.2v-2.08Z" transform="translate(-937.25 -5937.91)"/>
</svg>
